<svg xmlns="http://www.w3.org/2000/svg" aria-hidden="true" style="position:absolute;width:0;height:0;overflow:hidden"><defs><symbol id="icon-Shape" viewBox="0 0 32 32"><path fill="#5d5dff" d="M1.318.941H28.8c.753 0 1.318.565 1.506 1.318v27.482c0 .753-.565 1.318-1.318 1.318H1.317c-.753 0-1.318-.565-1.318-1.129V2.259c0-.753.565-1.318 1.318-1.318zm3.2 25.6h4.518V12.235H4.518v14.306zm2.258-16.188c-1.506 0-2.635-1.318-2.635-2.635 0-1.506 1.129-2.635 2.635-2.635s2.635 1.129 2.635 2.635c-.188 1.318-1.318 2.635-2.635 2.635zm14.306 16.188h4.329v-7.906c0-3.765-.753-6.776-5.271-6.776-2.071 0-3.576 1.129-4.141 2.259v-1.882H11.67V26.73h4.518v-7.153c0-1.882.376-3.765 2.635-3.765s2.259 2.071 2.259 3.765v6.965z" style="fill:var(--color1, #5d5dff)"/></symbol><symbol id="icon-logo-instagram" viewBox="0 0 32 32"><path fill="#5d5dff" d="M26.21 7.784a1.92 1.92 0 1 1-3.841-.001 1.92 1.92 0 0 1 3.841.001zM8 16c0 4.412 3.588 8 8 8s8-3.588 8-8-3.588-8-8-8-8 3.588-8 8zm4 0c0-2.206 1.794-4 4-4s4 1.794 4 4-1.794 4-4 4-4-1.794-4-4z" style="fill:var(--color1, #5d5dff)"/><path fill="#5d5dff" d="M8 32h16c4.112 0 8-3.888 8-8V8c0-4.112-3.888-8-8-8H8C3.888 0 0 3.888 0 8v16c0 4.112 3.888 8 8 8zM4 8c0-1.87 2.13-4 4-4h16c1.87 0 4 2.13 4 4v16c0 1.87-2.13 4-4 4H8c-1.906 0-4-2.094-4-4V8z" style="fill:var(--color1, #5d5dff)"/></symbol><symbol id="icon-Path-2" viewBox="0 0 32 32"><path fill="#5d5dff" d="M12.046 32 12 18H6v-6h6V8c0-5.398 3.343-8 8.159-8 2.307 0 4.289.172 4.867.248V5.89l-3.34.002c-2.619 0-3.126 1.245-3.126 3.071v3.038H26l-2 6h-5.44v14h-6.514z" style="fill:var(--color1, #5d5dff)"/></symbol><symbol id="icon-Path-1" viewBox="0 0 32 32"><path fill="#5d5dff" d="M15.059 1.318C6.777 1.318 0 8.094 0 16.377c0 6.588 4.329 12.235 10.353 14.306.753.188.941-.376.941-.753v-2.635c-4.141.941-5.082-1.882-5.082-1.882-.753-1.694-1.694-2.259-1.694-2.259-1.318-.941.188-.941.188-.941 1.506.188 2.259 1.506 2.259 1.506 1.318 2.447 3.576 1.694 4.329 1.318.188-.941.565-1.694.941-2.071-3.388-.376-6.776-1.694-6.776-7.529 0-1.694.565-3.012 1.506-3.953-.188-.376-.753-1.882.188-3.953 0 0 1.318-.376 4.141 1.506 1.129-.376 2.447-.565 3.765-.565s2.635.188 3.765.565c2.824-1.882 4.141-1.506 4.141-1.506.753 2.071.376 3.576.188 3.953.941 1.129 1.506 2.447 1.506 3.953 0 5.835-3.576 6.965-6.965 7.341.565.753 1.129 1.694 1.129 3.012v4.141c0 .376.188.941 1.129.753 6.024-2.071 10.353-7.718 10.353-14.306-.188-8.282-6.965-15.059-15.247-15.059z" style="fill:var(--color1, #5d5dff)"/></symbol><symbol id="icon-Path" viewBox="0 0 32 32"><path fill="#5d5dff" d="M32 6c-1.2.6-2.4.8-3.8 1 1.4-.8 2.4-2 2.8-3.6-1.2.8-2.6 1.2-4.2 1.6-1.2-1.2-3-2-4.8-2-3.4 0-6.4 3-6.4 6.6 0 .6 0 1 .2 1.4-5.4-.2-10.4-2.8-13.6-6.8-.6 1-.8 2-.8 3.4 0 2.2 1.2 4.2 3 5.4-1 0-2-.4-3-.8 0 3.2 2.2 5.8 5.2 6.4-.6.2-1.2.2-1.8.2-.4 0-.8 0-1.2-.2.8 2.6 3.2 4.6 6.2 4.6C7.6 25 4.8 26 1.6 26H0c3 1.8 6.4 3 10 3 12 0 18.6-10 18.6-18.6v-.8C30 8.6 31.2 7.4 32 6z" style="fill:var(--color1, #5d5dff)"/></symbol><symbol id="icon-untitled" viewBox="0 0 32 32"><path fill="#5d5dff" d="M2.444 11.646C.814 14.991 0 18.228 0 21.356v6.041h9.622v-6.191c0-2.629.416-5.101 1.248-7.414s2.098-4.601 3.797-6.865L9.154 3.332c-2.843 2.197-5.08 4.967-6.709 8.312zm17.334 0c-1.63 3.345-2.444 6.582-2.444 9.71v6.041h9.622v-6.191c0-2.629.416-5.101 1.248-7.414s2.098-4.601 3.797-6.865l-5.513-3.595c-2.843 2.197-5.079 4.967-6.709 8.312z" style="fill:var(--color1, #5d5dff)"/></symbol><symbol id="icon-Shapes-5" viewBox="0 0 32 32"><path fill="none" stroke="#cbccff" stroke-linecap="square" stroke-width="2.667" d="M24 4V1.333M26.828 5.172l1.887-1.887M28 8h2.667M26.828 10.828l1.887 1.887M24 12v2.667M21.172 10.828l-1.887 1.887M20 8h-2.667M21.172 5.172l-1.887-1.887M28 8a4 4 0 1 1-8 0 4 4 0 0 1 8 0z" style="stroke:var(--color2, #cbccff)"/><path fill="none" stroke="#f4f4ff" stroke-linecap="square" stroke-width="2.667" d="M13.147 2.907C6.4 3.984 1.334 8.8 1.334 14.667c0 6.667 6.533 12 14.667 12 1.397.028 2.79-.151 4.133-.533l7.867 3.2-.8-6.933a12.173 12.173 0 0 0 2.655-3.931" style="stroke:var(--color3, #f4f4ff)"/></symbol><symbol id="icon-Shapes-4" viewBox="0 0 32 32"><path fill="none" stroke="#f4f4ff" stroke-linecap="square" stroke-width="2.667" d="M10.667 30h13.639a2.666 2.666 0 0 0 2.549-1.883l3.692-12a2.665 2.665 0 0 0-2.546-3.45h-9.333V7.334c0-3.164-1.668-4.659-3.685-5.147a1.34 1.34 0 0 0-1.648 1.305v5.175l-6.667 8" style="stroke:var(--color3, #f4f4ff)"/><path fill="none" stroke="#cbccff" stroke-linecap="square" stroke-width="2.667" d="M1.333 14h5.333v16H1.333V14z" style="stroke:var(--color2, #cbccff)"/></symbol><symbol id="icon-Shapes-3" viewBox="0 0 32 32"><path fill="none" stroke="#f4f4ff" stroke-linecap="square" stroke-width="2.56" d="M25.6 30.72v-8.064a11.478 11.478 0 0 0 3.84-8.408C29.466 7.976 24.522 2.81 18.255 2.56A11.522 11.522 0 0 0 6.399 14.08v1.28l-2.56 6.4 2.56 1.28v5.12a2.56 2.56 0 0 0 2.56 2.56h5.12a6.402 6.402 0 0 0 6.4-6.4v-6.4" style="stroke:var(--color3, #f4f4ff)"/><path fill="none" stroke="#cbccff" stroke-linecap="square" stroke-width="2.56" d="M24.32 14.08a3.84 3.84 0 1 1-7.68 0 3.84 3.84 0 0 1 7.68 0z" style="stroke:var(--color2, #cbccff)"/></symbol><symbol id="icon-Shapes-2" viewBox="0 0 32 32"><path fill="none" stroke="#cbccff" stroke-linecap="square" stroke-width="2.667" d="M23.333 16c0 8.1-3.283 14.667-7.333 14.667S8.667 24.101 8.667 16C8.667 7.9 11.95 1.333 16 1.333S23.333 7.899 23.333 16z" style="stroke:var(--color2, #cbccff)"/><path fill="none" stroke="#f4f4ff" stroke-linecap="square" stroke-width="2.667" d="M16 1.333v29.333M1.333 16h29.333M30.667 16c0 8.1-6.567 14.667-14.667 14.667S1.333 24.101 1.333 16C1.333 7.9 7.899 1.333 16 1.333S30.667 7.899 30.667 16z" style="stroke:var(--color3, #f4f4ff)"/></symbol><symbol id="icon-Shapes-1" viewBox="0 0 32 32"><path fill="none" stroke="#f4f4ff" stroke-linecap="square" stroke-width="2.667" d="M1.333 4h29.333v24H1.333V4z" style="stroke:var(--color3, #f4f4ff)"/><path fill="none" stroke="#cbccff" stroke-linecap="square" stroke-width="2.667" d="M8 10.667h16M8 16h16M8 21.333h6.667" style="stroke:var(--color2, #cbccff)"/></symbol><symbol id="icon-Shapes" viewBox="0 0 32 32"><path fill="none" stroke="#f4f4ff" stroke-linecap="square" stroke-width="2.462" d="m13.538 25.001-5.145 2.704 1.452-8.47-6.154-5.999L12.196 12l3.803-7.705L19.802 12l8.505 1.236-3.692 3.599" style="stroke:var(--color3, #f4f4ff)"/><path fill="none" stroke="#cbccff" stroke-linecap="square" stroke-width="2.462" d="M29.538 28.308H18.461M29.538 22.154H18.461" style="stroke:var(--color2, #cbccff)"/></symbol><symbol id="icon-Logo-1" ><path fill="#d8d8d8" d="M32 16c0 8.837-7.163 16-16 16S0 24.837 0 16 7.163 0 16 0s16 7.163 16 16z" opacity=".01" style="fill:var(--color4, #d8d8d8)"/><path fill="#5658dd" d="M122.573 56.596c4.604-.004 9.207-.008 13.811-.008v-6.187h-15.915c-3.409 0-6.876.116-10.363.232-7.927.264-15.958.532-23.643-.547-9.377-1.317-18.306-6.631-26.137-12.309-8.86-6.424-16.62-14.354-24.385-22.288l-.001-.001C30.39 9.817 24.837 4.142 18.878-.987 15.31-4.062 11.635-7.029 7.749-9.576l-.247-.162c-4.029-2.646-10.975-7.207-14.406-1.574C-9.575-6.927-9.531-.458-9.493 5.221c.01 1.457.019 2.862-.017 4.167-.41 14.523-1.735 35.234-16.715 39.856-3.027.853-6.107 1.144-9.222 1.156-12.318.036-24.636.02-36.954.001a51.167 51.167 0 0 1-4.143-.16 34.418 34.418 0 0 1-4.253-.627c-8.349-1.768-15.982-6.378-23.599-10.978-10.815-6.532-21.598-13.044-34.355-11.376-8.62 1.128-15.677 6.227-22.739 11.331-6.946 5.02-13.897 10.043-22.345 11.293-3.194.414-6.396.514-9.608.518h-25.558v6.188c2.939 0 5.879.004 8.819.008 5.964.008 11.928.016 17.892-.009 6.348-.026 12.632-.432 18.436-3.623 4.131-2.271 7.78-5.501 11.363-8.703l.315-.281c6.614-5.913 13.448-12.023 21.969-13.802 13.75-2.871 25.173 4.959 36.645 12.822 9.249 6.339 18.53 12.701 29.088 13.493 1.376.078 2.752.094 4.129.094 4.228 0 8.46.033 12.693.066h.002c8.984.07 17.973.14 26.944-.105 5.015-.2 10.067-1.178 14.061-4.845 4.575-4.2 6.746-10.779 8.132-17.049 1.359-6.151 1.575-12.407 1.79-18.655.192-5.566.384-11.127 1.383-16.605 1.866-10.305 9.264-7.799 15.534-3.727 6.277 4.077 11.959 9.314 17.397 14.675 2.712 2.672 5.358 5.429 7.989 8.202 11.221 11.826 22.78 23.392 36.594 31.282 6.891 3.932 13.893 6.727 21.684 6.757 9.571.028 19.142.019 28.713.011zM101.61 73.713h34.776v-6.53H99.098c-8.066-.001-15.021-2.319-22.11-6.567-4.636-2.78-9.065-5.996-13.362-9.39-6.67-5.27-12.936-11.144-19.004-17.26-2.826-2.848-5.579-5.859-8.343-8.88l-.001-.001-.001-.001C29.273 17.427 22.204 9.698 13.724 4.353 10.968 2.614 7.014.257 3.836 1.845.326 3.599-.196 9.355-.542 13.166l-.031.344c-.229 2.474-.354 4.957-.479 7.441-.108 2.156-.217 4.312-.393 6.461-1.207 14.503-3.213 35.873-18.66 39.185-6.317 1.354-13.14 1.076-19.79.804-2.678-.109-5.328-.218-7.906-.218-2.698 0-5.461.106-8.25.213-6.893.264-13.939.534-20.528-.775a28.514 28.514 0 0 1-2.125-.507c-8.336-2.325-15.481-8.267-22.414-14.031a273.628 273.628 0 0 0-4.972-4.07c-9.019-7.151-19.879-15.403-31.485-13.888-9.631 1.257-16.67 9.365-23.027 16.862l-.736.869c-2.878 3.403-5.786 6.839-9.158 9.623-5.537 4.57-11.487 5.689-18.203 5.704h-30.3v6.53h32.797c10.963-.003 17.51-5.925 24.177-14.997a332.94 332.94 0 0 0 2.232-3.085c4.269-5.943 8.641-12.032 14.593-15.828 7.862-5.016 16.516-3.312 24.26 1.137 6.454 3.708 12.139 8.948 17.819 14.184 6.952 6.408 13.896 12.808 22.231 16.384 6.851 2.937 14.655 2.646 22.133 2.366 2.168-.081 4.308-.161 6.39-.161 3.339 0 6.686.045 10.036.09 7.171.096 14.354.193 21.494-.151 3.607-.247 7.134-1.12 10.179-3.403C-.456 62.58.687 45.515 1.596 31.948c.129-1.926.253-3.781.398-5.529.073-.905.117-1.966.165-3.116.234-5.661.558-13.483 4.932-15.557 4.765-2.259 11.265 3.475 15.094 6.853l.642.565c4.82 4.221 9.219 8.99 13.615 13.758l.001.001c2.127 2.307 4.254 4.613 6.428 6.856 8.131 8.388 16.541 16.488 25.631 23.543 4.93 3.826 9.967 7.601 15.457 10.354.589.295 1.174.563 1.744.816a40.648 40.648 0 0 0 4.889 1.822c3.611 1.062 7.295 1.387 11.018 1.4zm34.774 17.123-9.857.001h-.056c-6.553.001-13.107.001-19.66-.001-4.527-.047-8.945-.804-13.235-2.449-10.785-4.139-19.821-12.679-28.466-20.85l-.018-.017-1.456-1.375c-7.103-6.697-13.907-13.763-20.714-20.831a2569.51 2569.51 0 0 0-4.858-5.035 501.772 501.772 0 0 1-2.243-2.34l-.003-.003c-3.452-3.615-6.924-7.251-10.765-10.315-2.574-2.054-6.087-4.805-9.394-4.044-3.824.88-4.799 6.366-5.442 9.984l-.002.012c-.758 4.266-1.079 8.608-1.399 12.948v.001c-.176 2.39-.353 4.778-.602 7.153l-.03.287c-.725 6.877-1.465 13.895-3.492 20.462-2.421 7.781-6.827 14.071-14.264 15.817-1.839.43-3.719.578-5.594.591-6.615.047-13.231.033-19.847.019-3.185-.007-6.37-.014-9.555-.014-2.793 0-5.636.099-8.498.199-6.494.226-13.079.456-19.372-.463-5.313-.784-10.03-3.788-14.275-7.331-5.38-4.49-10.131-9.841-14.869-15.179h-.001a401.31 401.31 0 0 0-5.193-5.774l-.523-.567c-6.835-7.411-15.246-16.532-24.988-17.808-11.331-1.484-18.043 11.101-22.837 20.643a256.153 256.153 0 0 0-1.84 3.766c-4.313 8.946-9.365 19.424-18.518 21.785-4.179 1.078-8.659.944-13.032.814a140.374 140.374 0 0 0-4.217-.085h-26.267V83.97c4.101 0 8.208.048 12.318.096h.001c8.576.1 17.161.2 25.711-.135.897-.036 1.8-.12 2.707-.25 10.16-2.05 15.326-11.566 20.531-21.155 4.544-8.372 9.119-16.8 17.074-20.363 13.818-6.189 27.956 9.022 38.404 20.263 1.725 1.856 3.349 3.603 4.855 5.128 7.616 7.714 16.294 16.092 27.051 16.393 11.471.32 22.971.22 34.462.12h.003c5.606-.049 11.211-.098 16.809-.098h.104c.617 0 1.233 0 1.843-.016 16.273-.445 20.51-17.908 22.21-33.371.346-3.142.591-6.295.837-9.449v-.001c.246-3.161.493-6.322.84-9.472l.108-1.003c.387-3.628.821-7.69 2.559-10.774 2.315-4.107 6.287-3.072 9.613-1.132 5.74 3.349 10.599 8.604 15.282 13.667l.001.001c.752.813 1.499 1.621 2.244 2.415 5.67 6.041 11.382 12.049 17.287 17.798a397.374 397.374 0 0 0 5.473 5.247l.79.739c8.896 8.321 18.248 17.069 29.021 21.981 3.316 1.511 6.756 2.583 10.317 3.039 8.409 1.075 17.098.815 25.708.557 3.765-.113 7.515-.225 11.22-.225v6.866zm-8.427 17.136c2.809-.006 5.618-.012 8.426-.012v-7.212c-3.055 0-6.111.011-9.167.022-6.401.023-12.802.046-19.201-.032-2.558-.086-5.09-.479-7.589-1.09-3.144-.857-6.152-2.116-9.061-3.706C82.034 90.838 74.15 82.89 66.47 75.145l-.713-.718c-5.121-5.161-10.172-10.407-15.223-15.653a2724.106 2724.106 0 0 0-8.004-8.29l-.735-.758c-2.206-2.274-4.413-4.548-6.687-6.736-.465-.448-.989-.975-1.559-1.549-3.887-3.915-9.941-10.014-14.607-8.114-4.638 1.889-5.276 10.692-5.702 16.579-.072 1-.139 1.916-.218 2.7-.219 2.121-.401 4.248-.584 6.374-.15 1.747-.301 3.495-.471 5.239-.356 3.641-.731 7.284-1.316 10.889-2.192 13.513-7.392 25.074-20.754 25.599-.652.026-21.951.041-31.942.041-2.904 0-5.841.082-8.79.166-6.539.184-13.134.37-19.546-.342-10.072-1.138-17.854-9.838-24.557-17.64-2.389-2.781-4.707-5.638-7.025-8.495-3.659-4.511-7.318-9.022-11.256-13.23-5.676-6.065-13.585-14.118-22.028-12.776-8.947 1.422-13.671 13.005-17.106 21.429-.185.455-.367.901-.546 1.336a343.826 343.826 0 0 0-1.427 3.55c-3.349 8.42-7.018 17.645-14.128 22.505-.463.315-.927.606-1.393.872s-.933.51-1.401.73c-3.091 1.454-6.395 1.854-9.719 1.894-8.57.016-17.141.011-25.712.006-4.107-.002-8.213-.004-12.32-.004v7.209l12.677.002c8.452.002 16.904.004 25.355-.002h.054c.881 0 1.774 0 2.677-.047a26.482 26.482 0 0 0 2.78-.313c.951-.158 1.89-.383 2.816-.676 9.769-3.059 15.001-13.109 18.74-22.971.751-1.98 1.488-4.269 2.269-6.695 3.133-9.729 6.978-21.668 15.287-24.802 8.94-3.373 17.979 6.948 23.638 13.467 3.797 4.374 7.342 9.006 10.887 13.638 3.023 3.95 6.046 7.899 9.225 11.69 6.577 7.841 14.248 15.777 24.285 16.611 6.494.525 13.095.379 19.664.233 3.048-.067 6.09-.134 9.111-.134h29.447c3.176-.001 6.357-.128 9.429-1.119 13.112-4.757 14.565-24.162 15.63-38.381.126-1.683.247-3.294.381-4.799.074-.837.143-1.685.213-2.54.426-5.22.872-10.69 2.56-15.516 2.868-8.199 9.106-4.648 13.997-.706 9.207 7.416 17.302 16.476 25.399 25.537 9.967 11.154 19.934 22.309 31.976 30.4 6.398 4.296 13.262 7.056 20.785 7.12 5.89.046 11.782.032 17.673.018z" style="fill:var(--color5, #5658dd)"/></symbol></defs></svg>